<svg width="93" height="93" viewBox="0 0 93 93" fill="none" xmlns="http://www.w3.org/2000/svg">
<mask id="mask0_1_22" style="mask-type:alpha" maskUnits="userSpaceOnUse" x="0" y="0" width="93" height="93">
<circle cx="46.5" cy="46.5" r="46.5" fill="white"/>
</mask>
<g mask="url(#mask0_1_22)">
<rect x="46.5" y="-5.58" width="61.38" height="104.16" fill="#3C3E43"/>
<rect x="-14.88" y="-5.58" width="61.38" height="104.16" fill="#81848D"/>
<rect x="-14.88" y="46.5" width="61.38" height="104.16" fill="#626166"/>
<rect x="46.5" y="46.5" width="61.38" height="104.16" fill="#4783F5"/>
</g>
<rect x="18" y="24" width="18" height="4" rx="2" fill="white"/>
<rect x="57" y="60" width="18" height="4" rx="2" fill="white"/>
<rect x="57" y="67" width="18" height="4" rx="2" fill="white"/>
<rect x="18" y="62" width="18" height="4" rx="2" fill="white"/>
<rect x="25" y="73" width="18" height="4" rx="2" transform="rotate(-90 25 73)" fill="white"/>
<rect x="58" y="30.7279" width="18" height="4" rx="2" transform="rotate(-45 58 30.7279)" fill="white"/>
<rect width="18" height="4" rx="2" transform="matrix(-0.707107 -0.707107 -0.707107 0.707107 73.5564 30.7279)" fill="white"/>
</svg>
